# xmcd CD database file
#
# Track frame offsets:
#	180
#	24106
#	44689
#	62964
#	80493
#	95628
#	118067
#	132131
#	154840
#	177472
#	188919
#	204731
#	220479
#	232640
#	244654
#
# Disc length: 3470 seconds
#
# Revision: 0
# Processed by: cddbd v1.5PL3 Copyright (c) Steve Scherf et al.
# Submitted via: CDex 1.51
#
DISCID=d30d8c0f
DTITLE=Kim Mwu Kuen - Alto Saxophone Collection
DYEAR=2003
DGENRE=Jazz
TTITLE0=Magia
TTITLE1=Misty
TTITLE2=When a man love's woman
TTITLE3=Danny boy
TTITLE4=Autumn leaves
TTITLE5=Stardust
TTITLE6=Blue in the night
TTITLE7=I can't stop loving you
TTITLE8=Harlem noctune
TTITLE9=Summertime
TTITLE10=Help me make it through the night
TTITLE11=Smoke get's in your eyes
TTITLE12=Take the "A" train
TTITLE13=Love me tender
TTITLE14=My way
EXTD=YEAR: 2003
EXTT0=
EXTT1=
EXTT2=
EXTT3=
EXTT4=
EXTT5=
EXTT6=
EXTT7=
EXTT8=
EXTT9=
EXTT10=
EXTT11=
EXTT12=
EXTT13=
EXTT14=
PLAYORDER=
